# xmcd
#
# Track frame offsets:
#	150
#	12107
#	23260
#	34359
#	50696
#	63581
#	73943
#	84892
#	96142
#	108776
#	123458
#	135582
#	148685
#	159023
#	171028
#	184660
#	198779
#	213853
#	224701
#	237545
#	249254
#	260658
#
# Disc length: 3620 seconds
#
# Revision: 1
# Processed by: cddbd v1.5.2PL0 Copyright (c) Steve Scherf et al.
# Submitted via: audiograbber 1.83.01
#
DISCID=310e2216
DTITLE=Hank Snow - Down at the Rainbow's End
DYEAR=2001
DGENRE=Country
TTITLE0=Golden River
TTITLE1=My Rough and Rowdy Way
TTITLE2=Little Old Home in New Orleans
TTITLE3=The Rainbow's End
TTITLE4=The End of the World
TTITLE5=Any Old Time
TTITLE6=I Wonder Where You Are Tonight
TTITLE7=The Land of my Boyhood Dreams
TTITLE8=With This Ring I Thee Wed
TTITLE9=Bury Me Deep
TTITLE10=Jealous Heart
TTITLE11=Born to Lose
TTITLE12=Peach Pickin' Time in Georgia
TTITLE13=I'll Never Let You Go, Little Darlin'
TTITLE14=Brand on my Heart
TTITLE15=I'll Go On Alone
TTITLE16=It's Been So Long, Darling
TTITLE17=The Cowhand's Last Ride
TTITLE18=Among My Souvenirs
TTITLE19=San Antonio Rose (instrumental)
TTITLE20=I'm Movin' On
TTITLE21=Twelfth Street Rag
EXTD=Titles written normally (with capital letters]\nMistakes in names of two t
EXTD=racks corrected.
EXTT0=
EXTT1=
EXTT2=
EXTT3=
EXTT4=
EXTT5=
EXTT6=
EXTT7=
EXTT8=
EXTT9=
EXTT10=
EXTT11=
EXTT12=
EXTT13=
EXTT14=
EXTT15=
EXTT16=
EXTT17=
EXTT18=
EXTT19=
EXTT20=
EXTT21=
PLAYORDER=
